<svg width="358" height="562" viewBox="0 0 358 562" fill="none" xmlns="http://www.w3.org/2000/svg">
<mask id="mask0_184_4484" style="mask-type:alpha" maskUnits="userSpaceOnUse" x="0" y="0" width="358" height="562">
<rect width="358" height="562" rx="28" fill="#B5EBE4"/>
</mask>
<g mask="url(#mask0_184_4484)">
<path opacity="0.6" d="M179 -265C227.748 -265 275.916 -254.424 320.181 -234.002C364.445 -213.579 403.752 -183.797 435.389 -146.709C467.026 -109.622 490.24 -66.112 503.43 -19.1819C516.62 27.7481 519.471 76.981 511.787 125.12C504.103 173.259 486.067 219.158 458.923 259.649C431.778 300.141 396.173 334.262 354.562 359.658C312.951 385.054 266.326 401.119 217.903 406.747C169.481 412.374 120.414 407.43 74.0883 392.254L179 72L179 -265Z" fill="url(#paint0_radial_184_4484)"/>
<circle opacity="0.8" cx="9.80273" cy="363.602" r="12" fill="white"/>
<circle cx="213.889" cy="407.35" r="4" transform="rotate(-6 213.889 407.35)" fill="#4FCCBC"/>
<circle cx="248.791" cy="401.823" r="4" transform="rotate(-12 248.791 401.823)" fill="#4FCCBC"/>
<circle cx="282.924" cy="392.677" r="4" transform="rotate(-18 282.924 392.677)" fill="#4FCCBC"/>
<circle cx="315.914" cy="380.013" r="4" transform="rotate(-24 315.914 380.013)" fill="#4FCCBC"/>
<circle cx="4" cy="4" r="4" transform="matrix(-0.994522 -0.104528 -0.104528 0.994522 147.707 403.791)" fill="#4FCCBC"/>
<circle cx="4" cy="4" r="4" transform="matrix(-0.978148 -0.207912 -0.207912 0.978148 113.153 398.742)" fill="#4FCCBC"/>
<circle cx="4" cy="4" r="4" transform="matrix(-0.951057 -0.309017 -0.309017 0.951057 79.3159 390.108)" fill="#4FCCBC"/>
<circle cx="4" cy="4" r="4" transform="matrix(-0.913545 -0.406737 -0.406737 0.913545 46.5669 377.985)" fill="#4FCCBC"/>
<circle opacity="0.8" cx="347.4" cy="363.6" r="12" transform="rotate(-90 347.4 363.6)" fill="white"/>
<circle cx="178.6" cy="409.2" r="24" fill="white"/>
<path d="M165.692 414.778C165.692 413.888 166.313 413.255 167.169 413.255C167.731 413.255 168.2 413.524 168.728 414.181C169.442 415.142 170.368 415.634 171.505 415.634C173.052 415.634 174.06 414.825 174.06 413.571C174.06 412.329 173.04 411.485 171.517 411.485H170.567C169.759 411.485 169.161 410.864 169.161 410.009C169.161 409.188 169.747 408.556 170.567 408.556H171.481C172.747 408.556 173.685 407.759 173.685 406.669C173.685 405.579 172.771 404.829 171.458 404.829C170.45 404.829 169.653 405.274 168.938 406.224C168.517 406.774 168.024 407.021 167.415 407.021C166.513 407.021 165.868 406.411 165.868 405.544C165.868 403.61 168.364 401.911 171.528 401.911C174.95 401.911 177.341 403.681 177.341 406.2C177.341 407.923 176.063 409.458 174.446 409.657V409.915C176.368 410.056 177.81 411.685 177.81 413.724C177.81 416.548 175.196 418.552 171.505 418.552C168.247 418.552 165.692 416.782 165.692 414.778ZM179.286 410.642V409.786C179.286 405.017 181.735 401.911 185.673 401.911C189.622 401.911 191.978 404.958 191.978 409.786V410.642C191.978 415.399 189.505 418.552 185.591 418.552C181.677 418.552 179.286 415.47 179.286 410.642ZM183.177 409.798V410.63C183.177 413.677 184.091 415.458 185.638 415.458C187.173 415.458 188.099 413.665 188.099 410.63V409.798C188.099 406.774 187.173 405.005 185.626 405.005C184.079 405.005 183.177 406.763 183.177 409.798Z" fill="#4FCCBC"/>
</g>
<defs>
<radialGradient id="paint0_radial_184_4484" cx="0" cy="0" r="1" gradientUnits="userSpaceOnUse" gradientTransform="translate(179 72) rotate(-180) scale(337)">
<stop offset="0.546875" stop-color="white"/>
<stop offset="0.890625" stop-color="white" stop-opacity="0"/>
</radialGradient>
</defs>
</svg>
